<svg width="180" height="250" viewBox="0 0 180 250" fill="none" xmlns="http://www.w3.org/2000/svg">
<rect y="141.566" width="51.1017" height="108.434" fill="#DA7454"/>
<rect x="9.91525" y="109.187" width="31.2712" height="32.3795" fill="#DA7454"/>
<path d="M21.7797 63.253H28.3656L31.2712 109.187H19.0678L21.7797 63.253Z" fill="#DA7454"/>
<path d="M73.7778 75H78.0952L80 109H72L73.7778 75Z" fill="#E8E8E8"/>
<path d="M151.441 63.253H158.027L160.932 109.187H148.729L151.441 63.253Z" fill="#DA7454"/>
<rect x="138.814" y="109.187" width="31.2712" height="32.3795" fill="#DA7454"/>
<rect x="128.898" y="141.566" width="51.1017" height="108.434" fill="#DA7454"/>
<rect x="51" y="153" width="78" height="97" fill="#D9BDB2"/>
<rect x="60" y="134" width="32" height="19" fill="#E8E8E8"/>
<rect x="67" y="109" width="18" height="25" fill="#E8E8E8"/>
<rect width="15" height="15" transform="translate(18 161)" fill="white"/>
<rect width="14" height="13" transform="translate(147 151)" fill="white"/>
<rect width="14" height="13" transform="translate(147 220)" fill="white"/>
<rect width="14" height="14" transform="translate(147 195)" fill="white"/>
<rect width="14" height="13" transform="translate(147 173)" fill="white"/>
<rect width="15" height="15" transform="translate(18 211)" fill="white"/>
<rect width="65.5932" height="18.8253" transform="translate(57.2034 219.88)" fill="#DFDEDE"/>
<path d="M70.0137 225.469V234H68.5898V225.469H70.0137ZM72.7793 229.189V230.385H69.6855V229.189H72.7793ZM73.1777 225.469V226.664H69.6855V225.469H73.1777ZM76.207 226.641L74.1445 234H72.6562L75.3633 225.469H76.2891L76.207 226.641ZM77.8535 234L75.7852 226.641L75.6855 225.469H76.6289L79.3477 234H77.8535ZM77.8887 230.83V232.025H73.916V230.83H77.8887ZM84.3867 231.217H85.8047C85.7773 231.834 85.6523 232.359 85.4297 232.793C85.207 233.223 84.8867 233.551 84.4688 233.777C84.0547 234.004 83.5488 234.117 82.9512 234.117C82.498 234.117 82.0918 234.035 81.7324 233.871C81.377 233.707 81.0742 233.471 80.8242 233.162C80.5742 232.85 80.3828 232.469 80.25 232.02C80.1211 231.57 80.0566 231.061 80.0566 230.49V228.979C80.0566 228.408 80.123 227.898 80.2559 227.449C80.3926 227 80.5879 226.619 80.8418 226.307C81.0957 225.994 81.4043 225.758 81.7676 225.598C82.1348 225.434 82.5488 225.352 83.0098 225.352C83.5996 225.352 84.0957 225.465 84.498 225.691C84.9004 225.918 85.2109 226.25 85.4297 226.688C85.6484 227.125 85.7754 227.658 85.8105 228.287H84.3926C84.373 227.861 84.3145 227.521 84.2168 227.268C84.123 227.01 83.9785 226.824 83.7832 226.711C83.5918 226.598 83.334 226.541 83.0098 226.541C82.7402 226.541 82.5078 226.592 82.3125 226.693C82.1211 226.795 81.9629 226.947 81.8379 227.15C81.7168 227.35 81.625 227.602 81.5625 227.906C81.5039 228.207 81.4746 228.561 81.4746 228.967V230.49C81.4746 230.881 81.5 231.227 81.5508 231.527C81.6016 231.828 81.6836 232.084 81.7969 232.295C81.9102 232.502 82.0605 232.66 82.248 232.77C82.4355 232.875 82.6699 232.928 82.9512 232.928C83.2871 232.928 83.5547 232.875 83.7539 232.77C83.957 232.664 84.1074 232.486 84.2051 232.236C84.3027 231.986 84.3633 231.646 84.3867 231.217ZM89.9824 225.469V234H88.5645V225.469H89.9824ZM92.1562 225.469V226.664H86.4141V225.469H92.1562ZM98.9062 229.037V230.49C98.9062 231.092 98.8359 231.619 98.6953 232.072C98.5586 232.525 98.3594 232.904 98.0977 233.209C97.8398 233.51 97.5273 233.736 97.1602 233.889C96.7969 234.041 96.3906 234.117 95.9414 234.117C95.4961 234.117 95.0898 234.041 94.7227 233.889C94.3594 233.736 94.0449 233.51 93.7793 233.209C93.5176 232.904 93.3145 232.525 93.1699 232.072C93.0293 231.619 92.959 231.092 92.959 230.49V229.037C92.959 228.428 93.0293 227.895 93.1699 227.438C93.3105 226.977 93.5117 226.592 93.7734 226.283C94.0391 225.975 94.3535 225.742 94.7168 225.586C95.084 225.43 95.4883 225.352 95.9297 225.352C96.3789 225.352 96.7852 225.43 97.1484 225.586C97.5156 225.742 97.8301 225.975 98.0918 226.283C98.3535 226.592 98.5547 226.977 98.6953 227.438C98.8359 227.895 98.9062 228.428 98.9062 229.037ZM97.4941 230.49V229.025C97.4941 228.592 97.459 228.221 97.3887 227.912C97.3223 227.6 97.2227 227.346 97.0898 227.15C96.957 226.951 96.793 226.805 96.5977 226.711C96.4062 226.613 96.1836 226.564 95.9297 226.564C95.6836 226.564 95.4629 226.613 95.2676 226.711C95.0762 226.805 94.9121 226.951 94.7754 227.15C94.6426 227.346 94.541 227.6 94.4707 227.912C94.4043 228.221 94.3711 228.592 94.3711 229.025V230.49C94.3711 230.916 94.4062 231.283 94.4766 231.592C94.5469 231.896 94.6484 232.146 94.7812 232.342C94.918 232.533 95.084 232.676 95.2793 232.77C95.4746 232.863 95.6953 232.91 95.9414 232.91C96.1914 232.91 96.4141 232.863 96.6094 232.77C96.8047 232.676 96.9668 232.533 97.0957 232.342C97.2285 232.146 97.3281 231.896 97.3945 231.592C97.4609 231.283 97.4941 230.916 97.4941 230.49ZM100.354 225.469H102.932C103.494 225.469 103.971 225.566 104.361 225.762C104.752 225.957 105.049 226.246 105.252 226.629C105.459 227.008 105.562 227.479 105.562 228.041C105.562 228.467 105.498 228.842 105.369 229.166C105.244 229.49 105.062 229.764 104.824 229.986C104.586 230.205 104.299 230.375 103.963 230.496L103.547 230.725H101.367L101.361 229.529H102.896C103.174 229.529 103.404 229.469 103.588 229.348C103.771 229.227 103.908 229.059 103.998 228.844C104.092 228.629 104.139 228.385 104.139 228.111C104.139 227.818 104.098 227.564 104.016 227.35C103.934 227.131 103.805 226.963 103.629 226.846C103.453 226.725 103.221 226.664 102.932 226.664H101.777V234H100.354V225.469ZM104.326 234L102.703 230.168L104.186 230.162L105.85 233.924V234H104.326ZM107.49 225.469L108.99 229.512L110.49 225.469H112.061L109.705 230.859V234H108.27V230.859L105.914 225.469H107.49Z" fill="black"/>
<rect width="15" height="15" transform="translate(18 186)" fill="white"/>
<rect x="57.9661" y="191.265" width="63.3051" height="12.8012" fill="white"/>
<line x1="57.9661" y1="197.542" x2="121.271" y2="197.542" stroke="#84726B"/>
<line x1="65.0932" y1="204.819" x2="65.0932" y2="191.265" stroke="#84726B"/>
<line x1="72.7203" y1="204.819" x2="72.7203" y2="191.265" stroke="#84726B"/>
<line x1="80.3475" y1="204.819" x2="80.3475" y2="191.265" stroke="#84726B"/>
<line x1="94.839" y1="204.819" x2="94.839" y2="191.265" stroke="#84726B"/>
<line x1="114.669" y1="204.066" x2="114.669" y2="190.512" stroke="#84726B"/>
<line x1="108.568" y1="204.819" x2="108.568" y2="191.265" stroke="#84726B"/>
<line x1="101.703" y1="204.819" x2="101.703" y2="191.265" stroke="#84726B"/>
<line x1="87.9746" y1="204.819" x2="87.9746" y2="191.265" stroke="#84726B"/>
<rect x="57.9661" y="169.428" width="63.3051" height="12.8012" fill="white"/>
<line x1="57.9661" y1="175.705" x2="121.271" y2="175.705" stroke="#84726B"/>
<line x1="65.0932" y1="182.982" x2="65.0932" y2="169.428" stroke="#84726B"/>
<line x1="72.7203" y1="182.982" x2="72.7203" y2="169.428" stroke="#84726B"/>
<line x1="80.3475" y1="182.982" x2="80.3475" y2="169.428" stroke="#84726B"/>
<line x1="94.839" y1="182.982" x2="94.839" y2="169.428" stroke="#84726B"/>
<line x1="114.669" y1="182.229" x2="114.669" y2="168.675" stroke="#84726B"/>
<line x1="108.568" y1="182.982" x2="108.568" y2="169.428" stroke="#84726B"/>
<line x1="101.703" y1="182.982" x2="101.703" y2="169.428" stroke="#84726B"/>
<line x1="87.9746" y1="182.982" x2="87.9746" y2="169.428" stroke="#84726B"/>
<ellipse cx="6.1017" cy="5.27108" rx="6.1017" ry="5.27108" transform="matrix(1 0 0 -1 77.0339 56.4759)" fill="#E8E8E8"/>
<ellipse cx="78.178" cy="58.735" rx="6.48305" ry="7.53012" fill="#E8E8E8"/>
<ellipse cx="79.7034" cy="67.3946" rx="3.4322" ry="4.14157" fill="#E8E8E8"/>
<ellipse cx="77.4153" cy="71.9126" rx="3.4322" ry="3.38855" fill="#E8E8E8"/>
<ellipse cx="155.593" cy="38.0271" rx="9.91525" ry="11.6717" fill="#E8E8E8"/>
<ellipse cx="148.347" cy="26.3554" rx="9.5339" ry="8.28313" fill="#E8E8E8"/>
<ellipse cx="165.127" cy="22.5903" rx="12.5847" ry="12.0482" fill="#E8E8E8"/>
<ellipse cx="155.975" cy="58.3584" rx="4.95763" ry="4.89458" fill="#E8E8E8"/>
<ellipse cx="157.5" cy="50.0753" rx="6.48305" ry="5.64759" fill="#E8E8E8"/>
<ellipse cx="155.975" cy="11.2952" rx="10.2966" ry="11.2952" fill="#E8E8E8"/>
<ellipse cx="30.8898" cy="27.8614" rx="7.24576" ry="9.78916" fill="#E8E8E8"/>
<ellipse cx="23.6441" cy="37.6506" rx="7.62712" ry="12.0482" fill="#E8E8E8"/>
<ellipse cx="25.1695" cy="49.6988" rx="8.38983" ry="8.28313" fill="#E8E8E8"/>
<ellipse cx="20.5932" cy="57.9819" rx="4.57627" ry="6.77711" fill="#E8E8E8"/>
</svg>
