<svg width="227" height="250" viewBox="0 0 227 250" fill="none" xmlns="http://www.w3.org/2000/svg">
<rect x="15" y="107" width="197" height="124" fill="#D2D6E1"/>
<rect y="227" width="227" height="23" fill="#D2D6E1"/>
<g filter="url(#filter0_d_0_1)">
<rect x="88.5995" y="131.757" width="49.801" height="95.7207" fill="#BB8141"/>
</g>
<rect x="95.5485" y="139.64" width="35.324" height="34.9099" fill="#D1924B"/>
<rect x="95.5485" y="186.937" width="35.324" height="34.9099" fill="#D1924B"/>
<line x1="92.074" y1="179.869" x2="98.4439" y2="179.869" stroke="#785228" stroke-width="4"/>
<rect x="88" y="227" width="51" height="12" fill="#969393"/>
<rect x="79" y="237" width="68" height="13" fill="#969393"/>
<rect x="32" y="137" width="47" height="75" fill="#F2EFEF"/>
<rect x="148" y="137" width="47" height="75" fill="#F2EFEF"/>
<rect x="32" y="137" width="47" height="6" fill="#D9D9D9"/>
<rect x="148" y="137" width="47" height="6" fill="#C6BEBE"/>
<rect x="32" y="137" width="47" height="6" fill="#C6BEBE"/>
<path d="M23.0661 53.4184C23.6978 51.9508 25.1423 51 26.7401 51H197.985C199.577 51 201.017 51.9435 201.652 53.4025L221.952 100.003C223.391 103.306 220.971 107 217.368 107H7.59604C4.00299 107 1.58279 103.323 3.0035 100.023L23.0661 53.4184Z" fill="#7685C0"/>
<path d="M35 44C35 40.134 38.134 37 42 37H184C187.866 37 191 40.134 191 44V51H35V44Z" fill="#D2D6E1"/>
<path d="M56 26V37" stroke="#858383" stroke-width="2.5"/>
<path d="M172 26V37" stroke="#858383" stroke-width="2.5"/>
<rect x="46" width="134" height="26" fill="#D2D6E1"/>
<path d="M87.6562 17.5938C87.6562 17.2422 87.6172 16.9297 87.5391 16.6562C87.4688 16.375 87.332 16.1211 87.1289 15.8945C86.9258 15.668 86.6367 15.4453 86.2617 15.2266C85.8945 15.0078 85.418 14.7852 84.832 14.5586C84.1602 14.3008 83.5312 14.0195 82.9453 13.7148C82.3672 13.4023 81.8555 13.0508 81.4102 12.6602C80.9727 12.2617 80.6289 11.7969 80.3789 11.2656C80.1289 10.7344 80.0039 10.1172 80.0039 9.41406C80.0039 8.71875 80.125 8.08594 80.3672 7.51562C80.6172 6.9375 80.9688 6.44141 81.4219 6.02734C81.8828 5.60547 82.4297 5.28125 83.0625 5.05469C83.6953 4.82031 84.3945 4.70312 85.1602 4.70312C86.2617 4.70312 87.2031 4.9375 87.9844 5.40625C88.7734 5.875 89.375 6.50391 89.7891 7.29297C90.2109 8.08203 90.4219 8.95703 90.4219 9.91797H87.5859C87.5859 9.36328 87.5 8.87109 87.3281 8.44141C87.1562 8.01172 86.8906 7.67578 86.5312 7.43359C86.1719 7.19141 85.707 7.07031 85.1367 7.07031C84.6133 7.07031 84.1797 7.17188 83.8359 7.375C83.5 7.57812 83.25 7.85547 83.0859 8.20703C82.9297 8.55859 82.8516 8.96094 82.8516 9.41406C82.8516 9.72656 82.918 10.0117 83.0508 10.2695C83.1836 10.5195 83.375 10.75 83.625 10.9609C83.875 11.1719 84.1797 11.3711 84.5391 11.5586C84.8984 11.7461 85.3125 11.9258 85.7812 12.0977C86.5781 12.3867 87.2734 12.707 87.8672 13.0586C88.4609 13.4102 88.9492 13.8047 89.332 14.2422C89.7227 14.6719 90.0117 15.1602 90.1992 15.707C90.3945 16.2539 90.4922 16.875 90.4922 17.5703C90.4922 18.2734 90.3711 18.9141 90.1289 19.4922C89.8945 20.0625 89.5508 20.5508 89.0977 20.957C88.6445 21.3633 88.0977 21.6797 87.457 21.9062C86.8164 22.125 86.0977 22.2344 85.3008 22.2344C84.5664 22.2344 83.8594 22.125 83.1797 21.9062C82.5078 21.6875 81.9062 21.3555 81.375 20.9102C80.8438 20.457 80.4219 19.8906 80.1094 19.2109C79.8047 18.5312 79.6523 17.7344 79.6523 16.8203H82.5C82.5 17.3672 82.5664 17.8359 82.6992 18.2266C82.832 18.6094 83.0234 18.9258 83.2734 19.1758C83.5312 19.418 83.832 19.5977 84.1758 19.7148C84.5273 19.8242 84.918 19.8789 85.3477 19.8789C85.8789 19.8789 86.3125 19.7852 86.6484 19.5977C86.9922 19.4023 87.2461 19.1328 87.4102 18.7891C87.5742 18.4453 87.6562 18.0469 87.6562 17.5938ZM99.2461 4.9375V22H96.4102V4.9375H99.2461ZM103.594 4.9375V7.32812H92.1094V4.9375H103.594ZM117.094 12.0742V14.9805C117.094 16.1836 116.953 17.2383 116.672 18.1445C116.398 19.0508 116 19.8086 115.477 20.418C114.961 21.0195 114.336 21.4727 113.602 21.7773C112.875 22.082 112.062 22.2344 111.164 22.2344C110.273 22.2344 109.461 22.082 108.727 21.7773C108 21.4727 107.371 21.0195 106.84 20.418C106.316 19.8086 105.91 19.0508 105.621 18.1445C105.34 17.2383 105.199 16.1836 105.199 14.9805V12.0742C105.199 10.8555 105.34 9.78906 105.621 8.875C105.902 7.95312 106.305 7.18359 106.828 6.56641C107.359 5.94922 107.988 5.48438 108.715 5.17188C109.449 4.85937 110.258 4.70312 111.141 4.70312C112.039 4.70312 112.852 4.85937 113.578 5.17188C114.312 5.48438 114.941 5.94922 115.465 6.56641C115.988 7.18359 116.391 7.95312 116.672 8.875C116.953 9.78906 117.094 10.8555 117.094 12.0742ZM114.27 14.9805V12.0508C114.27 11.1836 114.199 10.4414 114.059 9.82422C113.926 9.19922 113.727 8.69141 113.461 8.30078C113.195 7.90234 112.867 7.60938 112.477 7.42188C112.094 7.22656 111.648 7.12891 111.141 7.12891C110.648 7.12891 110.207 7.22656 109.816 7.42188C109.434 7.60938 109.105 7.90234 108.832 8.30078C108.566 8.69141 108.363 9.19922 108.223 9.82422C108.09 10.4414 108.023 11.1836 108.023 12.0508V14.9805C108.023 15.832 108.094 16.5664 108.234 17.1836C108.375 17.793 108.578 18.293 108.844 18.6836C109.117 19.0664 109.449 19.3516 109.84 19.5391C110.23 19.7266 110.672 19.8203 111.164 19.8203C111.664 19.8203 112.109 19.7266 112.5 19.5391C112.891 19.3516 113.215 19.0664 113.473 18.6836C113.738 18.293 113.938 17.793 114.07 17.1836C114.203 16.5664 114.27 15.832 114.27 14.9805ZM119.988 4.9375H125.145C126.27 4.9375 127.223 5.13281 128.004 5.52344C128.785 5.91406 129.379 6.49219 129.785 7.25781C130.199 8.01562 130.406 8.95703 130.406 10.082C130.406 10.9336 130.277 11.6836 130.02 12.332C129.77 12.9805 129.406 13.5273 128.93 13.9727C128.453 14.4102 127.879 14.75 127.207 14.9922L126.375 15.4492H122.016L122.004 13.0586H125.074C125.629 13.0586 126.09 12.9375 126.457 12.6953C126.824 12.4531 127.098 12.1172 127.277 11.6875C127.465 11.2578 127.559 10.7695 127.559 10.2227C127.559 9.63672 127.477 9.12891 127.312 8.69922C127.148 8.26172 126.891 7.92578 126.539 7.69141C126.188 7.44922 125.723 7.32812 125.145 7.32812H122.836V22H119.988V4.9375ZM127.934 22L124.688 14.3359L127.652 14.3242L130.98 21.8477V22H127.934ZM142.512 19.6211V22H135.105V19.6211H142.512ZM135.855 4.9375V22H133.008V4.9375H135.855ZM141.516 12.0391V14.3828H135.105V12.0391H141.516ZM142.441 4.9375V7.32812H135.105V4.9375H142.441Z" fill="black"/>
<defs>
<filter id="filter0_d_0_1" x="84.5995" y="131.757" width="57.801" height="103.721" filterUnits="userSpaceOnUse" color-interpolation-filters="sRGB">
<feFlood flood-opacity="0" result="BackgroundImageFix"/>
<feColorMatrix in="SourceAlpha" type="matrix" values="0 0 0 0 0 0 0 0 0 0 0 0 0 0 0 0 0 0 127 0" result="hardAlpha"/>
<feOffset dy="4"/>
<feGaussianBlur stdDeviation="2"/>
<feComposite in2="hardAlpha" operator="out"/>
<feColorMatrix type="matrix" values="0 0 0 0 0 0 0 0 0 0 0 0 0 0 0 0 0 0 0.25 0"/>
<feBlend mode="normal" in2="BackgroundImageFix" result="effect1_dropShadow_0_1"/>
<feBlend mode="normal" in="SourceGraphic" in2="effect1_dropShadow_0_1" result="shape"/>
</filter>
</defs>
</svg>
