<svg width="300" height="171" viewBox="0 0 300 171" fill="none" xmlns="http://www.w3.org/2000/svg">
<rect y="8" width="179" height="136" fill="#D9BDB2"/>
<path d="M179 8H239.254C241.474 8 243.429 9.46442 244.052 11.5955L267 90H179V8Z" fill="#D9BDB2"/>
<path d="M195 26C195 24.3431 196.343 23 198 23H233.482C234.813 23 235.985 23.8773 236.36 25.1546L249.871 71.1546C250.435 73.0758 248.995 75 246.992 75H198C196.343 75 195 73.6569 195 72V26Z" fill="#CFDDF9"/>
<path d="M179 90H282.883C288.049 90 292.364 93.9344 292.841 99.078L297 144H179V90Z" fill="#D9BDB2"/>
<line x1="180.5" y1="8" x2="180.5" y2="144" stroke="#B5978B" stroke-width="3"/>
<line x1="0.00837976" y1="107.5" x2="179.008" y2="108.5" stroke="#B5978B" stroke-width="3"/>
<path d="M0 8C0 3.58172 3.58172 0 8 0H228.897C231.988 0 234.906 1.42962 236.8 3.87257L240 8H0V8Z" fill="#DA7454"/>
<path d="M0 137C0 136.448 0.447715 136 1 136H299C299.552 136 300 136.448 300 137V143C300 143.552 299.552 144 299 144H0.999999C0.447714 144 0 143.552 0 143V137Z" fill="#DA7454"/>
<circle cx="51" cy="144" r="27" fill="#4F4E4E"/>
<ellipse cx="51.5" cy="144" rx="18.5" ry="19" fill="#E2E2E2"/>
<circle cx="51.5" cy="143.5" r="13.5" fill="#4F4E4E"/>
<path d="M231.439 24.482C232.944 22.5875 235.958 23.1629 236.659 25.4788L250.798 72.1704C251.187 73.4547 250.225 74.75 248.884 74.75H197.715C195.204 74.75 193.804 71.8497 195.366 69.8838L231.439 24.482Z" fill="#EAF1FF"/>
<rect x="199" y="85" width="16" height="5" rx="2" fill="#EAF1FF"/>
<circle cx="234" cy="144" r="27" fill="#4F4E4E"/>
<ellipse cx="234.5" cy="144" rx="18.5" ry="19" fill="#E2E2E2"/>
<circle cx="234.5" cy="143.5" r="13.5" fill="#4F4E4E"/>
</svg>
